<?xml version="1.0" encoding="utf-8"?>
<!-- Generator: Adobe Illustrator 26.0.3, SVG Export Plug-In . SVG Version: 6.00 Build 0)  -->
<svg version="1.1" id="图层_1" xmlns="http://www.w3.org/2000/svg" xmlns:xlink="http://www.w3.org/1999/xlink" x="0px" y="0px"
	 viewBox="0 0 500 466.67" style="enable-background:new 0 0 500 466.67;" xml:space="preserve">
<style type="text/css">
	.st0{fill:#060307;}
</style>
<path class="st0" d="M483.59,171.86c-11.34-19.65-27.77-35.42-47.06-46.07c0.5-22.15-4.94-44.41-16.35-64.17l-0.13-0.23
	C398.69,24.4,359.28,1.09,316.69,0.05C316.34,0.02,315.98,0,315.62,0h-1.66h-0.24H186.55C142.78,0,102,23.54,80.13,61.44
	L16.41,171.8c-21.88,37.9-21.88,84.99,0,122.89c11.34,19.65,27.78,35.42,47.06,46.08c-0.52,22.19,4.92,44.5,16.36,64.31l0.12,0.21
	c21.81,37.78,62.46,61.3,106.08,61.39c0.08,0,0.16,0,0.24,0c1.74,0,3.46-0.05,5.19-0.12h121.99c43.76,0,84.54-23.54,106.42-61.44
	l63.71-110.36C505.47,256.85,505.47,209.76,483.59,171.86z M260.7,441.48c12.74-9.7,23.65-21.92,31.89-36.18l95.72-165.73
	l31.86-55.16c5.75-9.96,9.98-20.56,12.7-31.45c11.7,8.1,21.69,18.76,29.01,31.44c17.42,30.17,17.42,67.65,0,97.82l-63.71,110.36
	c-17.42,30.17-49.88,48.91-84.72,48.91H260.7z M101.52,392.52c-7.39-12.81-11.63-26.93-12.74-41.25c-0.22-2.9-0.32-5.8-0.29-8.71
	c8.21,7.91,18.91,12.7,30.6,13.5c1.16,0.08,2.33,0.12,3.51,0.12h70.9l56.48-97.82l17.24,29.85l3.75,6.49
	c1.13,1.95,2.37,3.81,3.71,5.56c2.68,3.48,5.76,6.55,9.16,9.14c8.3,6.33,18.51,9.88,29.44,9.97l-42.39,73.4
	c-13.78,23.86-36.96,40.54-63.29,46.46c-5.17,1.16-10.47,1.91-15.83,2.21c-1.82,0.1-3.65,0.17-5.49,0.17c-0.06,0-0.13,0-0.19,0
	c-2.92-0.01-5.82-0.15-8.7-0.42c-31.35-2.89-59.82-20.9-75.73-48.46L101.52,392.52z M186.55,25.06h52.92
	c-12.81,9.72-23.78,21.98-32.06,36.31l-62.95,109c-0.32,0.5-0.62,1.01-0.92,1.53L79.87,282.17c-0.33,0.57-0.64,1.14-0.94,1.71
	c-5.27,9.45-9.2,19.45-11.78,29.73c-11.71-8.1-21.71-18.76-29.03-31.46c-17.42-30.17-17.42-67.65,0-97.82l63.71-110.36
	C119.25,43.8,151.71,25.06,186.55,25.06z M398.48,74.15c7.37,12.77,11.61,26.85,12.73,41.13c0.23,2.93,0.33,5.87,0.3,8.81
	c-8.61-8.31-19.98-13.2-32.34-13.63c-0.6-0.02-1.2-0.03-1.8-0.03h-0.2h-70.71l-56.48,97.82l-17.23-29.85L229,171.9
	c-1.13-1.95-2.37-3.81-3.71-5.55c-2.68-3.48-5.76-6.55-9.16-9.14c-8.28-6.31-18.46-9.86-29.36-9.97l42.35-73.33
	c13.77-23.83,36.91-40.5,63.2-46.44c5.17-1.17,10.47-1.92,15.84-2.23c1.85-0.11,3.7-0.17,5.57-0.17c0.06,0,0.13,0,0.19,0
	c2.9,0.01,5.78,0.15,8.64,0.41c31.38,2.87,59.88,20.88,75.79,48.44L398.48,74.15z"/>
</svg>
