<?xml version="1.0" encoding="utf-8"?>
<!-- Generator: Adobe Illustrator 26.0.3, SVG Export Plug-In . SVG Version: 6.00 Build 0)  -->
<svg version="1.1" id="图层_1" xmlns="http://www.w3.org/2000/svg" xmlns:xlink="http://www.w3.org/1999/xlink" x="0px" y="0px"
	 viewBox="0 0 544.21 103.74" style="enable-background:new 0 0 544.21 103.74;" xml:space="preserve">
<style type="text/css">
	.st0{fill:#060307;}
</style>
<g>
	<g>
		<g>
			<path class="st0" d="M78.69,102.73H67.76c-3.87,0-7.47-1.96-9.56-5.21L18.27,35.5v55.86c0,6.28-5.09,11.37-11.37,11.37H0V0h10.93
				c3.87,0,7.47,1.96,9.56,5.21l39.94,62.01V11.37C60.43,5.09,65.52,0,71.8,0h6.89V102.73z"/>
		</g>
		<g>
			<path class="st0" d="M315.89,103.74c-19.34,0.33-35.17-15.84-35.17-35.18V24.32h6.89c6.28,0,11.37,5.09,11.37,11.37v33.08
				c0,8.83,6.85,16.36,15.68,16.7c9.28,0.35,16.94-7.09,16.94-16.29V35.69c0-6.28,5.09-11.37,11.37-11.37h6.89v44.85
				C349.86,88.03,334.67,103.41,315.89,103.74z"/>
		</g>
		<g>
			<g>
				<path class="st0" d="M403.08,102.73c-20.83,0-37.77-16.95-37.77-37.77V11.37C365.3,5.09,370.4,0,376.68,0h6.89v64.96
					c0,8.22,5.11,15.26,12.31,18.13c4.34,1.73,7.2,5.9,7.2,10.57V102.73z"/>
			</g>
			<g>
				<path class="st0" d="M391.71,44.44h-17.27V26.17h28.64v6.89C403.08,39.35,397.99,44.44,391.71,44.44z"/>
			</g>
		</g>
		<g>
			<path class="st0" d="M436.06,102.74h-6.89c-6.28,0-11.37-5.09-11.37-11.37V65.35c0-22.63,18.41-41.03,41.03-41.03v8.85
				c0,4.84-3.08,9.11-7.63,10.74c-8.81,3.14-15.13,11.57-15.13,21.45V102.74z"/>
		</g>
		<g>
			<g>
				<path class="st0" d="M205.06,102.73h-6.89c-6.28,0-11.37-5.09-11.37-11.37V0h6.89c6.28,0,11.37,5.09,11.37,11.37V102.73z"/>
			</g>
			<g>
				<path class="st0" d="M226.5,103.74c-21.9,0-39.71-17.81-39.71-39.71s17.81-39.71,39.71-39.71s39.71,17.81,39.71,39.71
					S248.4,103.74,226.5,103.74z M226.5,42.58c-11.83,0-21.45,9.62-21.45,21.45c0,11.83,9.62,21.45,21.45,21.45
					c11.82,0,21.45-9.62,21.45-21.45C247.95,52.2,238.33,42.58,226.5,42.58z"/>
			</g>
		</g>
		<g>
			<g>
				<path class="st0" d="M544.21,102.73h-6.89c-6.28,0-11.37-5.09-11.37-11.37V64.03h18.27V102.73z"/>
			</g>
			<g>
				<path class="st0" d="M504.5,103.74c-21.9,0-39.71-17.81-39.71-39.71s17.81-39.71,39.71-39.71c21.9,0,39.71,17.81,39.71,39.71
					S526.4,103.74,504.5,103.74z M504.5,42.58c-11.83,0-21.45,9.62-21.45,21.45c0,11.83,9.62,21.45,21.45,21.45
					c11.82,0,21.45-9.62,21.45-21.45C525.94,52.2,516.32,42.58,504.5,42.58z"/>
			</g>
		</g>
		<g>
			<g>
				<rect x="102.92" y="53.18" class="st0" width="66.72" height="18.27"/>
			</g>
			<path class="st0" d="M147.44,80.28c-4.3,3.7-10.07,5.73-16.31,5.07c-9.76-1.04-17.69-8.78-18.93-18.52
				c-1.78-14.01,10.06-25.86,24.08-24.06c9.61,1.23,17.29,8.97,18.47,18.58c0.44,3.58-0.02,7-1.16,10.1h18.89
				c0.46-2.41,0.71-4.88,0.71-7.42c0-22.91-19.49-41.34-42.76-39.6C111,25.89,95.33,41.56,93.87,60.98
				c-1.75,23.27,16.69,42.76,39.6,42.76c14.91,0,27.92-8.26,34.71-20.45l-7.81-4.33C156.21,76.65,151.05,77.18,147.44,80.28z"/>
		</g>
	</g>
</g>
</svg>
