<?xml version="1.0" encoding="utf-8"?>
<!-- Generator: Adobe Illustrator 26.0.3, SVG Export Plug-In . SVG Version: 6.00 Build 0)  -->
<svg version="1.1" id="图层_1" xmlns="http://www.w3.org/2000/svg" xmlns:xlink="http://www.w3.org/1999/xlink" x="0px" y="0px"
	 viewBox="0 0 699.7 155.49" style="enable-background:new 0 0 699.7 155.49;" xml:space="preserve">
<g>
	<g>
		<g>
			<path d="M145.24,19.26H8.4v-7.54c0-4.16,3.38-7.54,7.54-7.54h136.84v7.54C152.78,15.89,149.4,19.26,145.24,19.26z"/>
		</g>
		<g>
			<path d="M153.63,64.48H0v-7.54c0-4.16,3.38-7.54,7.54-7.54h153.63v7.54C161.17,61.11,157.8,64.48,153.63,64.48z"/>
		</g>
		<path d="M155.73,136.28l-17.26-47.42h-26.75l14.84,40.77c0.9,2.46-0.93,5.06-3.54,5.06H38.15c-2.62,0-4.44-2.6-3.54-5.06
			l25.01-68.71H32.87L5.44,136.28c-2.39,6.56,2.47,13.49,9.45,13.49h131.4C153.26,149.77,158.12,142.84,155.73,136.28z"/>
	</g>
	<g>
		<g>
			<path d="M252.89,98.94h-76.24V91.4c0-4.16,3.38-7.54,7.54-7.54h76.24v7.54C260.43,95.56,257.06,98.94,252.89,98.94z"/>
		</g>
		<g>
			<path d="M249.92,20.02h-56.48V4.94h64.02v7.54C257.47,16.64,254.09,20.02,249.92,20.02z"/>
		</g>
		<g>
			<path d="M333.1,22.73h-71.05v-7.54c0-4.16,3.38-7.54,7.54-7.54h71.05v7.54C340.65,19.35,337.27,22.73,333.1,22.73z"/>
		</g>
		<g>
			<path d="M312.58,7.61l0,3.7l-23.25,0l0-11.25l15.71,0C309.2,0.07,312.58,3.44,312.58,7.61z"/>
		</g>
		<path d="M209.82,29.26v7.54c0,4.16,3.38,7.54,7.54,7.54h10.88c2.08,0,3.77,1.69,3.77,3.77l0,88.52c0,2.08-1.69,3.77-3.77,3.77
			h-19.4c-2.08,0-3.77-1.69-3.77-3.77l0-99.83c0-4.16-3.38-7.54-7.54-7.54h-15.71l0,108.63c0,9.72,7.88,17.6,17.6,17.6h38.26
			c9.72,0,17.6-7.88,17.6-17.6l0-91.03c0-9.72-7.88-17.6-17.6-17.6H209.82z"/>
		<g>
			<path d="M286.78,73.77l0,64.12c0,9.72-7.88,17.6-17.6,17.6h-4.4l0-74.17c0-4.16,3.38-7.54,7.54-7.54H286.78z"/>
		</g>
		<g>
			<path d="M313.08,73.77l0,64.12c0,9.72-7.88,17.6-17.6,17.6h-4.4l0-74.17c0-4.16,3.38-7.54,7.54-7.54H313.08z"/>
		</g>
		<path d="M339.39,137.51l0-63.74h-14.45c-4.16,0-7.54,3.38-7.54,7.54l0,56.58c0,9.72,7.88,17.6,17.6,17.6h10.19V143.3
			c0-1.6-1.3-2.9-2.9-2.9l0,0C340.69,140.41,339.39,139.11,339.39,137.51z"/>
		<path d="M342.56,53.66l-7.9-21.69h-26.75l5.78,15.89c0.75,2.05-0.77,4.22-2.95,4.22h-19.77c-2.18,0-3.7-2.17-2.95-4.22
			l11.09-30.48h-26.75l-13.21,36.28c-2.39,6.56,2.47,13.49,9.45,13.49h64.51C340.09,67.15,344.94,60.22,342.56,53.66z"/>
		<path d="M181.94,6.3l-3.62,20.51h19.2c3.66,0,6.79-2.63,7.43-6.23l3.62-20.51h-19.2C185.71,0.07,182.57,2.69,181.94,6.3z"/>
		<polygon points="209.24,103.76 213.75,135.58 228.98,135.58 224.48,103.76 		"/>
		<polygon points="209.59,50.01 213.51,77.7 228.75,77.7 224.83,50.01 		"/>
	</g>
	<g>
		<path d="M474.6,3.18v7.54c0,4.16,3.38,7.54,7.54,7.54h10.88c2.08,0,3.77,1.69,3.77,3.77l0,36.76c0,2.08-1.69,3.77-3.77,3.77h-19.4
			c-2.08,0-3.77-1.69-3.77-3.77l0-48.07c0-4.16-3.38-7.54-7.54-7.54H446.6l0,56.87c0,9.72,7.88,17.6,17.6,17.6h38.26
			c9.72,0,17.6-7.88,17.6-17.6l0-39.27c0-9.72-7.88-17.6-17.6-17.6H474.6z"/>
		<g>
			<g>
				<path d="M475.78,126.17H397.1v-7.54c0-4.16,3.38-7.54,7.54-7.54h78.68v7.54C483.32,122.79,479.95,126.17,475.78,126.17z"/>
			</g>
			<path d="M393.29,81.76v7.54c0,4.16,3.38,7.54,7.54,7.54h89.68c2.08,0,3.77,1.69,3.77,3.77l0,36.02c0,2.08-1.69,3.77-3.77,3.77
				h-98.2c-2.08,0-3.77-1.69-3.77-3.77l0-47.33c0-4.16-3.38-7.54-7.54-7.54h-15.71l0,56.13c0,9.72,7.88,17.6,17.6,17.6h117.06
				c9.72,0,17.6-7.88,17.6-17.6V99.36c0-9.72-7.88-17.6-17.6-17.6H393.29z"/>
		</g>
		<g>
			<path d="M433,20.02h-56.05V4.94h63.59v7.54C440.54,16.64,437.16,20.02,433,20.02z"/>
		</g>
		<g>
			<path d="M434.23,50.51h-70.74v-7.54c0-4.16,3.38-7.54,7.54-7.54h70.74v7.54C441.77,47.14,438.39,50.51,434.23,50.51z"/>
		</g>
		<path d="M397.73,13.23l-34.25,64.42h22.43c3.72,0,7.13-2.05,8.88-5.33l31.41-59.08H397.73z"/>
		<path d="M389.07,17.07l3-17h-19.2c-3.66,0-6.79,2.63-7.43,6.23l-3,17h19.2C385.3,23.3,388.43,20.67,389.07,17.07z"/>
		<path d="M396.19,42.97l15.6,29.34c1.75,3.28,5.16,5.33,8.88,5.33h22.43l-18.44-34.67H396.19z"/>
	</g>
	<g>
		<path d="M573.04,50.47v7.54c0,4.16,3.38,7.54,7.54,7.54h18.65c2.08,0,3.77,1.69,3.77,3.77v10.47h-34.71V58.01
			c0-4.16-3.38-7.54-7.54-7.54h-15.71l0,105.02h13.2c5.55,0,10.06-4.5,10.06-10.06l0-21.24H603v12.44c0,2.08-1.69,3.77-3.77,3.77
			h-6.22c-4.16,0-7.54,3.38-7.54,7.54v7.54l23.18,0c9.72,0,17.6-7.88,17.6-17.6l0-69.82c0-9.72-7.88-17.6-17.6-17.6H573.04z
			 M568.29,109.11V94.88H603l0,14.24H568.29z"/>
		<path d="M618.9,9.72h-26.75l5.78,15.89c0.75,2.05-0.77,4.22-2.95,4.22h-19.1c-2.18,0-3.7-2.17-2.95-4.22l9.3-25.54h-26.75
			l-11.41,31.35c-2.39,6.56,2.47,13.49,9.45,13.49h63.83c6.98,0,11.84-6.94,9.45-13.49L618.9,9.72z"/>
		<g>
			<path d="M699.7,14.54V5.56l-40.81,7.2V0h-23.25l0,46.83c0,9.72,7.88,17.6,17.6,17.6h46.46v-7.54c0-4.16-3.38-7.54-7.54-7.54
				h-29.5c-2.08,0-3.77-1.69-3.77-3.77V28.07l34.58-6.1C697.07,21.33,699.7,18.2,699.7,14.54z"/>
			<path d="M658.89,72.46h-23.25l0,65.43c0,9.72,7.88,17.6,17.6,17.6l46.46,0v-7.54c0-4.16-3.38-7.54-7.54-7.54h-29.5
				c-2.08,0-3.77-1.69-3.77-3.77v-36.11l34.58-6.1c3.6-0.64,6.23-3.77,6.23-7.43v-8.99l-40.81,7.2V72.46z"/>
		</g>
	</g>
</g>
</svg>
