<?xml version="1.0" encoding="utf-8"?>
<!-- Generator: Adobe Illustrator 26.0.3, SVG Export Plug-In . SVG Version: 6.00 Build 0)  -->
<svg version="1.1" id="图层_1" xmlns="http://www.w3.org/2000/svg" xmlns:xlink="http://www.w3.org/1999/xlink" x="0px" y="0px"
	 viewBox="0 0 535.71 500" style="enable-background:new 0 0 535.71 500;" xml:space="preserve">
<style type="text/css">
	.st0{fill:#FFFFFF;}
</style>
<path class="st0" d="M518.13,184.13c-12.15-21.05-29.76-37.95-50.42-49.37c0.53-23.73-5.29-47.58-17.52-68.75l-0.14-0.25
	c-22.88-39.63-65.11-64.6-110.74-65.72C338.93,0.02,338.55,0,338.17,0h-1.77h-0.25H199.87c-46.89,0-90.58,25.23-114.02,65.83
	L17.58,184.07c-23.45,40.61-23.45,91.06,0,131.66C29.74,336.78,47.34,353.69,68,365.1c-0.56,23.78,5.28,47.68,17.53,68.91l0.13,0.22
	c23.37,40.48,66.92,65.68,113.66,65.77c0.09,0,0.17,0,0.26,0c1.86,0,3.71-0.05,5.56-0.13h130.7c46.89,0,90.58-25.23,114.02-65.83
	l68.26-118.24C541.58,275.19,541.58,224.74,518.13,184.13z M279.32,473.01c13.65-10.39,25.34-23.48,34.17-38.76l102.56-177.57
	l34.14-59.1c6.16-10.67,10.69-22.03,13.61-33.7c12.53,8.68,23.24,20.09,31.08,33.68c18.66,32.33,18.66,72.49,0,104.81l-68.26,118.24
	c-18.66,32.33-53.44,52.41-90.77,52.41H279.32z M108.77,420.56c-7.92-13.72-12.46-28.85-13.65-44.2c-0.24-3.1-0.34-6.22-0.31-9.33
	c8.79,8.47,20.26,13.61,32.79,14.47c1.24,0.09,2.5,0.13,3.76,0.13h75.97l60.51-104.81l18.47,31.99l4.01,6.95
	c1.21,2.09,2.54,4.08,3.98,5.95c2.87,3.73,6.17,7.01,9.82,9.79c8.89,6.78,19.83,10.58,31.54,10.68l-45.42,78.64
	c-14.76,25.56-39.6,43.43-67.81,49.78c-5.54,1.25-11.21,2.05-16.97,2.37c-1.95,0.11-3.91,0.18-5.88,0.18c-0.07,0-0.14,0-0.21,0
	c-3.13-0.01-6.24-0.17-9.33-0.45c-33.59-3.1-64.1-22.39-81.14-51.92L108.77,420.56z M199.87,26.85h56.7
	c-13.72,10.41-25.48,23.55-34.35,38.9l-67.45,116.78c-0.34,0.54-0.67,1.09-0.99,1.64L85.57,302.33c-0.35,0.61-0.68,1.22-1.01,1.83
	c-5.65,10.13-9.85,20.84-12.62,31.85c-12.55-8.68-23.26-20.1-31.11-33.7c-18.66-32.33-18.66-72.49,0-104.81L109.1,79.26
	C127.77,46.93,162.55,26.85,199.87,26.85z M426.94,79.44c7.9,13.68,12.44,28.77,13.64,44.06c0.25,3.14,0.36,6.29,0.32,9.44
	c-9.22-8.91-21.4-14.14-34.65-14.6c-0.64-0.02-1.29-0.04-1.93-0.04h-0.21h-75.76l-60.51,104.81l-18.46-31.98l-4.02-6.96
	c-1.21-2.09-2.54-4.08-3.98-5.95c-2.87-3.73-6.17-7.01-9.82-9.8c-8.87-6.76-19.78-10.57-31.46-10.68l45.38-78.57
	c14.75-25.54,39.55-43.4,67.72-49.76c5.54-1.25,11.22-2.06,16.97-2.39c1.98-0.11,3.97-0.18,5.96-0.18c0.07,0,0.13,0,0.2,0
	c3.11,0.01,6.19,0.16,9.25,0.44c33.62,3.08,64.16,22.38,81.2,51.9L426.94,79.44z"/>
</svg>
